<svg width="100" height="100" viewBox="0 0 100 100" fill="none" xmlns="http://www.w3.org/2000/svg">
<g clip-path="url(#clip0_1_38)">
<circle cx="50" cy="50" r="45" stroke="#53A1E9" stroke-width="10"/>
<path fill-rule="evenodd" clip-rule="evenodd" d="M50 85C69.33 85 85 69.33 85 50C85 30.67 69.33 15 50 15C30.67 15 15 30.67 15 50C15 69.33 30.67 85 50 85ZM43 67C43 70.866 46.134 74 50 74C53.866 74 57 70.866 57 67V33C57 29.134 53.866 26 50 26C46.134 26 43 29.134 43 33L43 67Z" fill="#53A1E9"/>
</g>
<defs>
<clipPath id="clip0_1_38">
<rect width="100" height="100" fill="white"/>
</clipPath>
</defs>
</svg>
